<?xml version="1.0" encoding="UTF-8" standalone="no"?>
<!-- Created with Inkscape (http://www.inkscape.org/) -->

<svg
   version="1.1"
   id="svg2"
   xml:space="preserve"
   width="4678.7905"
   height="1846.6547"
   viewBox="0 0 4678.7905 1846.6546"
   xmlns="http://www.w3.org/2000/svg"
   xmlns:svg="http://www.w3.org/2000/svg"><defs
     id="defs6" /><g
     id="g10"
     transform="matrix(1.3333333,0,0,-1.3333333,1.1994061e-4,1846.6549)"><g
       id="g12"
       transform="scale(0.1)"><path
         d="m 4052.45,5913.39 c 942.65,-2.18 1885.31,-4.35 2827.96,-6.53 488.73,-103.56 992.41,-121.96 1475.03,-261.91 155.49,-45.08 302.45,-18.98 421.2,101.27 322.38,326.42 727.17,475.88 1167.78,555.75 118.58,21.49 231.48,72.9 348.28,105.81 323.7,91.14 646.8,131.2 979.2,27.75 201.8,-62.8 409.9,-115.21 619.1,-142.16 375.2,-48.32 734.1,-186.47 1115.8,-194.14 61.4,-8.88 122.9,-17.74 184.3,-26.61 40.2,-60.62 94.7,-76.13 162,-51.45 127,-17.71 254,-35.43 381.1,-53.14 -5.1,-15.75 -3.9,-31.01 3.6,-45.78 -166.4,-9.02 -332.7,-20.28 -499.1,-26.67 -741.6,-28.5 -1483.6,-48.95 -2224.7,-85.83 -409.9,-20.4 -811.1,-86.37 -1170.45,-314.21 -434.8,-275.69 -880.72,-533.95 -1313.92,-812.05 -188.34,-120.92 -382.18,-178.75 -601.36,-152.66 -375.49,44.71 -750.28,95.24 -1125.98,137.96 -345.43,39.29 -695.67,121.82 -1036.58,94.65 -469.21,-37.38 -937.13,-44.08 -1406.05,-54.91 -56.34,-1.3 -122.99,11.86 -140.62,-87.33 171.25,-137 353.07,-269.71 565.64,-355.84 134.72,-171.87 334.95,-257.1 507.59,-377.49 C 6115.1,3314 6957.47,2776.5 7903.93,2418 c 397.32,-150.5 797.48,-289.4 1205.05,-404.9 250.42,-71 510.06,-57 766.35,-1.7 317.37,68.5 503.57,260.1 566.37,578 58.7,296.5 128.8,590.9 182.6,888.2 93.4,515.78 313.1,980.36 561.5,1434.62 65.8,120.44 170.1,170.7 302.1,161.8 105.3,-7.1 210.1,-22.66 314.8,-36.89 104.7,-14.23 209.2,-46.76 313.3,-44.65 367.6,7.45 720.9,-83.88 1077.1,-148.61 535.4,-97.32 1067.3,-214.43 1600.7,-322.54 562.7,-114.01 1124.1,-234.62 1688.5,-338.95 579.4,-107.11 1165.5,-180.97 1741.3,-303.85 254.2,-54.23 510.1,-63.33 763.2,-108.03 312.1,-55.1 625.3,-104.6 938.9,-150.7 403.2,-59.2 806.1,-123.4 1211.3,-164.8 286.1,-29.3 571.5,-49.9 856.2,-100.3 174.8,-30.9 369.7,-20.4 541.6,24.7 196.7,51.5 390.4,47.3 586.8,56.5 347.2,16.2 698.3,-39.5 1041,72.1 81.3,26.4 188.7,23.1 269,-7 222.4,-83.2 450.3,-57.3 676.8,-64.6 182.4,-5.8 374.8,27.4 545,-20.2 331.1,-92.7 663.6,-60.3 995.9,-73 197.4,-7.6 403.9,23.5 590.2,-24.8 241.9,-62.7 480.8,-61.5 722.9,-62.9 441,-2.6 882.4,8.6 1323.1,-3.1 281,-7.5 541.4,32.7 785.8,178.9 116.7,69.9 243.3,127.2 371.6,172.7 629.1,222.8 1260.2,439.89 1890.7,658.43 114.7,39.74 230.8,75.47 345.4,115.32 183.9,63.92 290.2,169.21 332.3,383.66 183.9,935.52 424.5,1857.8 694.9,2772.59 63.6,214.96 72.3,446.14 106.3,669.86 26.8,87 58.4,172.9 79.4,261.29 26,109.28 -3.7,205.38 -69.7,299.26 -235.9,335.47 -467.4,674.11 -696.6,1014.26 -55.6,82.53 -118.5,133.67 -222.2,125.14 -75.7,-6.23 -151.9,-5.3 -227.7,-11.17 -1090.5,-84.44 -2182.6,-134.54 -3276.4,-140.13 -471.1,-2.41 -941.5,27.02 -1412.1,42.06 -850.7,27.18 -1702.7,10.15 -2553.9,24.62 -1397.3,23.74 -2793.6,-65.16 -4191.6,-16.17 -865.5,30.32 -1733,3.11 -2599.4,10.98 -471.1,4.27 -942,25.54 -1412.9,43.82 -212,8.23 -424.6,48.21 -635.4,38.98 -1186.8,-52.01 -2368.4,75.49 -3553,92.25 -30.4,0.43 -60.8,1.31 -91.1,4.2 -209.5,20.05 -273.5,61.55 -317.8,259.05 -92.9,414.5 -186.1,829.7 -255.7,1248.5 -42.7,256.7 -128.2,499.5 -186.1,750.1 -69.4,300.1 -263.6,428.3 -543,468.7 -89.9,13 -181.3,17.6 -272.3,20.6 -398.2,13.2 -786.3,-55.9 -1170.6,-151 -607.16,-150.3 -1188.93,-369.5 -1746.83,-651.8 -434.26,-219.7 -880.03,-411.5 -1334.22,-587 -439.02,-169.7 -869.27,-362.3 -1301.21,-549.9 -58.28,-25.3 -148.37,-36.6 -137.36,-155.6 222.93,-27.4 447.49,-62.3 673.39,-80.6 183.89,-15 361.59,-44.6 529.7,-122.2 115.31,-106.1 268.62,-131.6 404.7,-194 57.16,-26.2 151.36,-35.4 121.27,-158.2 -223.83,0 -450.11,0.9 -676.37,-0.4 -104.96,-0.5 -213,12.8 -306.97,-53 -512.76,-23.3 -1024.68,-22.6 -1536.17,-107.42 -552.7,-91.61 -1062.45,-350.01 -1626.23,-387.39 -55.76,-3.7 -110.19,-46.86 -162.74,-76.18 C 2365.98,9053.18 1632.43,8630.78 927.852,8160.73 738.234,8034.24 568.086,7882.61 501.805,7649.08 754.262,7411.36 994.48,7158.65 1262.41,6939.88 1566.72,6691.4 1896,6472.23 2167.43,6185.69 c 135.89,-143.46 286.61,-202.19 484,-198.7 423.04,7.53 848.33,28.5 1265.17,-79.33 41.98,-10.85 90.41,3.22 135.85,5.73 z M 34833.7,7171.18 c -140.5,-213.91 -109.3,-470.14 -169.1,-704.22 -90.1,-352.93 -151.7,-713.31 -220.5,-1071.44 -104.2,-541.71 -356,-1033.19 -521.9,-1553.72 -32.8,-103.1 -118.9,-126.8 -203.1,-162.5 -587.4,-249.6 -1176.5,-495.6 -1759.8,-754.3 -402.6,-178.7 -800.4,-369.1 -1193.6,-567.7 -221.8,-111.9 -442.8,-186 -696,-179.7 -395.1,9.7 -790.6,-1 -1186,-2.3 -365,-1.2 -730,-0.5 -1095,-2.7 -273.8,-1.6 -548,-17.9 -821.2,-7.2 -502.6,19.8 -1004.1,13.6 -1504.8,-28.6 -355,-29.9 -698.9,-3.5 -1022.5,160.9 -167.1,84.9 -349.9,100.2 -532.1,112.5 -591.8,40.2 -1183.6,79.7 -1775.6,115.6 -1092.8,66.3 -2186.8,115.6 -3278.3,199 -864.5,66 -1716,237.9 -2570.3,382.7 -704.6,119.5 -1401.5,272.9 -2098.1,432.4 -606.8,138.8 -1226.3,222.3 -1847.5,278.3 -151,13.6 -304,7.3 -456,5.6 -108.6,-1.3 -157.1,-62.3 -168.9,-170.4 -18.1,-166.1 -45,-331.3 -73.2,-496.1 -162.8,-949.9 -447.9,-1858.1 -904.7,-2711.101 -291,-543.2967 -341.2,-504.2967 -854.55,-332.297 -243.24,81.5 -476.45,200.899 -702.18,325 C 8565.76,776 7960.51,1126.8 7390.98,1535.3 c -37.05,26.6 -73.37,55 -113.26,76.7 -1354.09,734.5 -2540.74,1723.3 -3844.9,2534.31 -308.28,191.71 -580.37,441.73 -868.32,665.95 -119.24,92.83 -219.97,209.2 -369.09,263.26 -53.52,19.39 -114.4,59.65 -140.12,107.49 -121.56,226 -343.06,340.07 -529.42,493.41 -317.03,260.84 -640.397,514.33 -950.284,783.39 -320.902,278.62 -505.8516,626.21 -564.0782,1059.65 -39.9766,297.51 23.9453,540.19 195.6522,766.27 166.434,219.12 368.774,403.13 585.242,573.11 527.148,413.9 1092.128,773.1 1647.578,1146.06 1853.27,1244.2 3869.72,2166.5 5932.51,2995.2 437.16,175.6 889.62,311.5 1355.47,393.3 226.53,39.8 442.04,112.8 650.74,205.1 529.5,234.4 1088.8,260.2 1654.8,249.4 124.6,-2.4 195.4,-70.3 243.2,-172.4 129.3,-275.9 228.5,-562.9 311.6,-855.8 45.4,-160.5 76.2,-327.1 171.7,-469 252.9,-376 351.1,-804.3 422.3,-1241.9 12.2,-75 21.2,-150.6 37.2,-224.7 18.1,-83.7 73.5,-137.1 159.9,-129.4 894.9,80 1790,-34.6 2688.7,34.2 1151.3,88.2 2309.7,92 3465.3,116.7 942.9,20.1 1885.3,46.7 2827.8,81.1 1231.5,45 2463,8 3695.3,-22.6 1474.6,-36.6 2950.9,0.6 4426.5,1.2 760.3,0.3 1520.6,-9 2280.9,-14.9 348.3,-2.8 605.9,-168 799.1,-449.2 232.4,-338.3 465.4,-675.19 730,-991.14 167.5,-200.08 331.9,-398.82 557,-531.2 236.7,-139.19 277.3,-326.73 214.5,-579.83 -69.3,-279.3 -106.8,-566.51 -158.1,-850.2 -76,-115.86 -69.8,-247.62 -72.7,-377.65"
         style="fill:#653b1f;fill-opacity:1;fill-rule:nonzero;stroke:none"
         id="path14" /><path
         d="m 13006.7,6099.32 c -381.6,7.58 -740.5,145.73 -1115.7,194.05 -209.2,26.95 -417.3,79.36 -619.1,142.16 -332.4,103.45 -655.5,63.39 -979.2,-27.75 -116.8,-32.91 -229.7,-84.32 -348.28,-105.81 -440.61,-79.87 -845.4,-229.33 -1167.78,-555.75 -118.75,-120.25 -265.71,-146.35 -421.2,-101.27 -482.62,139.95 -986.3,158.35 -1474.99,261.87 -78.64,95.16 -188.11,84.38 -293.9,84.55 -319.23,0.53 -638.54,4.76 -957.65,-1.42 -161.53,-3.11 -289.32,44.6 -409.96,156.5 -444.47,412.29 -925.41,779.78 -1429.7,1115.8 -89.79,59.82 -188.93,113 -237.15,207.09 -81.36,158.77 -202.79,261.45 -363.59,325.32 -116.38,46.23 -201.73,132.4 -289.63,216.94 -98,94.25 -180.78,206.9 -309.4,265.67 162.63,167.63 397.75,214.13 580.78,348.63 504.54,370.78 1077.61,617.11 1634.78,891.82 94.37,46.52 195.52,101.73 296.5,108.47 422.52,28.24 835.59,139.5 1264.39,119.3 511.06,-24.07 1025.19,27.58 1576.84,-93.42 -126.33,246.96 -280.14,356.73 -512.71,360.33 -333.22,5.2 -666.37,15.8 -999.55,24.1 93.97,65.8 202.01,52.5 306.97,53 226.26,1.3 452.54,0.4 676.37,0.4 30.09,122.8 -64.11,132 -121.27,158.2 -136.08,62.4 -289.39,87.9 -404.88,194.2 260.25,33.1 493.06,144 725.5,256.5 669.6,324 1333.09,659.9 2011.25,967.4 608.16,275.7 1244.56,487.3 1830.96,811.4 39.4,21.7 83.3,37.9 127.1,48.2 71.7,17 122.9,-23.1 129.5,-88.1 16.8,-165.9 -2.7,-339 35.9,-498.6 104.1,-431 89.3,-873.9 136.4,-1309.2 60.3,-557.3 152.4,-1109.51 218.1,-1665.46 30.3,-256.24 163.6,-372.12 418.3,-406.21 104.7,-14.02 212.3,-6.35 318.5,-9.79 545.2,-17.61 1092.1,28.91 1635.5,-71.17 175.5,-32.32 369.2,-25.59 543.7,12.57 226.4,49.48 451.7,55.36 678.7,59.8 468.1,9.17 936,50.97 1404.5,9.57 548.2,-48.45 1087.6,100.98 1634,76.61 670,-29.87 1329.9,112.1 1998,104.76 15.2,-0.17 31.2,-1.39 45.4,2.79 486.7,143.35 994.8,60.8 1491.1,147.48 399,69.68 818.6,14.9 1228.4,30.73 423.5,16.36 846.1,56.23 1269.5,76.47 318.6,15.24 645.5,-25.66 955.3,31.36 646.1,118.92 1300,54.11 1948.9,137.9 673.8,87 1361.1,30.9 2043.9,88.37 693.8,58.41 1396.5,10.1 2095.3,8.63 10.1,-74.8 7,-154.47 32.4,-223.79 112.1,-306.86 62.4,-587.41 -82.3,-875.63 -156.1,-310.63 -275.2,-639.72 -412.2,-959.99 -209.2,-488.95 -406.5,-987.71 -952.4,-1212.66 -13.5,-5.56 -23.3,-19.48 -35.9,-27.84 -442.2,-292.88 -889.6,-578.32 -1324.5,-881.51 -197.7,-137.74 -401.5,-200.33 -639,-187.96 -573.8,29.9 -1145.7,-2.59 -1723.6,72.21 -628.2,81.32 -1252,186.96 -1878.9,274.19 -328.8,45.76 -659.4,98.13 -990.1,105.42 -395,8.72 -776.1,144.07 -1173.6,108.13 -28.7,-2.59 -61.1,7.44 -88.1,19.78 -158.4,72.49 -326.8,57.25 -493.5,61.29 -362.5,8.77 -728.1,-35.48 -1084.4,81.56 -82.8,27.21 -181.1,8.61 -272.2,8.89 -273.6,0.87 -547.3,-0.78 -820.8,1.39 -182.3,1.44 -374.5,-27.97 -544.3,20.04 -270.8,76.62 -540.4,65.09 -812.4,70.69 -136.3,2.8 -271.2,-0.03 -405.6,43.2 -99,31.86 -209.3,51.56 -312.3,44.2 -427.7,-30.55 -837.8,144.07 -1265.3,101.14 -383.9,135.27 -781.3,74.47 -1174.1,80.93 -132.7,89.51 -283.5,84.3 -434.7,90.8 -524.7,22.54 -1052.8,-32.57 -1574,80.98 -111.7,24.32 -242.1,34.62 -342.9,-60.45"
         style="fill:#c9861a;fill-opacity:1;fill-rule:nonzero;stroke:none"
         id="path16" /><path
         d="m 31811.4,9264.21 c -698.8,1.57 -1401.5,49.88 -2095.3,-8.53 -682.8,-57.47 -1370.1,-1.37 -2043.9,-88.37 -648.9,-83.79 -1302.8,-18.98 -1948.9,-137.9 -309.8,-57.02 -636.7,-16.12 -955.3,-31.36 -423.4,-20.24 -846,-60.11 -1269.5,-76.47 -409.8,-15.83 -829.4,38.95 -1228.4,-30.73 -496.3,-86.68 -1004.4,-4.13 -1491.1,-147.48 -14.2,-4.18 -30.2,-2.96 -45.4,-2.79 -668.1,7.34 -1328,-134.63 -1998,-104.76 -546.4,24.37 -1085.8,-125.06 -1634,-76.61 -468.5,41.4 -936.4,-0.4 -1404.5,-9.57 -227,-4.44 -452.3,-10.32 -678.7,-59.8 -174.5,-38.16 -368.2,-44.89 -543.7,-12.57 -543.4,100.08 -1090.3,53.56 -1635.5,71.17 -106.2,3.44 -213.8,-4.23 -318.5,9.79 -254.7,34.09 -388,149.97 -418.3,406.21 -65.7,555.95 -157.8,1108.16 -218.1,1665.46 -47.1,435.3 -32.3,878.2 -136.4,1309.2 -38.6,159.6 -19.1,332.7 -35.9,498.6 -6.6,65 -57.8,105.1 -129.5,88.1 -43.8,-10.3 -87.7,-26.5 -127.1,-48.2 -586.4,-324.1 -1222.8,-535.7 -1830.96,-811.4 -678.16,-307.5 -1341.65,-643.4 -2011.25,-967.4 -232.44,-112.5 -465.25,-223.4 -725.5,-256.5 -167.93,77.4 -345.63,107 -529.52,122 -225.9,18.3 -450.46,53.2 -673.39,80.6 -11.01,119 79.08,130.3 137.36,155.6 431.94,187.6 862.19,380.2 1301.21,549.9 454.19,175.5 899.96,367.3 1334.22,587 557.9,282.3 1139.67,501.5 1746.83,651.8 384.3,95.1 772.4,164.2 1170.6,151 91,-3 182.4,-7.6 272.3,-20.6 279.4,-40.4 473.6,-168.6 543,-468.7 57.9,-250.6 143.4,-493.4 186.1,-750.1 69.6,-418.8 162.8,-834 255.7,-1248.5 44.3,-197.5 108.3,-239 317.8,-259.05 30.3,-2.89 60.7,-3.77 91.1,-4.2 1184.6,-16.76 2366.2,-144.26 3553,-92.25 210.8,9.23 423.4,-30.75 635.4,-38.98 470.9,-18.28 941.8,-39.55 1412.9,-43.82 866.4,-7.87 1733.9,19.34 2599.4,-10.98 1398,-48.99 2794.3,39.91 4191.6,16.17 851.2,-14.47 1703.2,2.56 2553.9,-24.62 470.6,-15.04 941,-44.47 1412.1,-42.06 1093.8,5.59 2185.9,55.69 3276.4,140.13 75.8,5.87 152,4.94 227.7,11.17 103.7,8.53 166.6,-42.61 222.2,-125.14 229.2,-340.15 460.7,-678.79 696.6,-1014.26 66,-93.88 95.7,-189.98 69.7,-299.26 -21,-88.39 -52.6,-174.29 -79.4,-261.35 -176.2,151.05 -352.4,302.15 -528.6,453.17 -18,24 -33.5,50.51 -54.4,71.8 -574.5,586.48 -574.6,586.38 -1418.1,535.44"
         style="fill:#ddc163;fill-opacity:1;fill-rule:nonzero;stroke:none"
         id="path18" /><path
         d="m 33284,8657.05 c 176.1,-151.1 352.3,-302.2 528.5,-453.25 -34,-223.66 -42.7,-454.84 -106.3,-669.8 -270.4,-914.79 -511,-1837.07 -694.9,-2772.59 -42.1,-214.45 -148.4,-319.74 -332.3,-383.66 -114.6,-39.85 -230.7,-75.58 -345.4,-115.32 C 31703.1,4043.89 31072,3826.8 30442.9,3604 c -128.3,-45.5 -254.9,-102.8 -371.6,-172.7 -244.4,-146.2 -504.8,-186.4 -785.8,-178.9 -440.7,11.7 -882.1,0.5 -1323.1,3.1 -242.1,1.4 -481,0.2 -722.9,62.9 -186.3,48.3 -392.8,17.2 -590.2,24.8 -332.3,12.7 -664.8,-19.7 -995.9,73 -170.2,47.6 -362.6,14.4 -545,20.2 -226.5,7.3 -454.4,-18.6 -676.8,64.6 -80.3,30.1 -187.7,33.4 -269,7 -342.7,-111.6 -693.8,-55.9 -1041,-72.1 -196.4,-9.2 -390.1,-5 -586.8,-56.5 -171.9,-45.1 -366.8,-55.6 -541.6,-24.7 -284.7,50.4 -570.1,71 -856.2,100.3 -405.2,41.4 -808.1,105.6 -1211.3,164.8 -313.6,46.1 -626.8,95.6 -938.9,150.7 -253.1,44.7 -509,53.8 -763.2,108.03 -575.8,122.88 -1161.9,196.74 -1741.3,303.85 -564.4,104.33 -1125.8,224.94 -1688.5,338.95 -533.4,108.11 -1065.3,225.22 -1600.7,322.54 -356.2,64.73 -709.5,156.06 -1077.1,148.61 -104.1,-2.11 -208.6,30.42 -313.3,44.65 -104.7,14.23 -209.5,29.79 -314.8,36.89 -132,8.9 -236.3,-41.36 -302.1,-161.8 -248.4,-454.26 -468.1,-918.84 -561.5,-1434.62 -53.8,-297.3 -123.9,-591.7 -182.6,-888.2 -62.8,-317.9 -249,-509.5 -566.37,-578 -256.29,-55.3 -515.93,-69.3 -766.35,1.7 -407.57,115.5 -807.73,254.4 -1205.05,404.9 -946.46,358.5 -1788.83,896 -2611.66,1469.87 -172.64,120.39 -372.87,205.62 -507.61,377.47 371.89,-3.95 743.79,-9.9 1115.69,-11.03 210.21,-0.64 415.04,-29.97 615.58,-91.8 25.59,-37.34 44.59,-82.42 77.8,-110.88 C 7076.99,3637.6 7601.26,3278 8120.71,2912.4 c 98.68,-69.5 212.91,-115.2 340.44,-114.7 501.2,1.9 1002.42,3 1503.62,1.7 158.53,-0.4 257.23,79.7 310.23,220.1 31.7,84 66.6,171.8 72.3,259.6 11.7,181.9 49.2,358.4 75.4,536.9 59.1,403.82 184.6,794.29 215.4,1204.01 18.4,244.29 113.3,469.51 355.4,592.8 151.3,0.97 302.6,1.94 453.9,2.91 57.8,-56.45 129.2,-74.96 207.6,-76.82 484.9,-11.54 968.1,-6.5 1452.5,-82.86 372.1,-58.64 746.7,-111.97 1121.1,-161.09 359.8,-47.18 720.1,-104.22 1081.7,-118.79 454.8,-18.3 900.2,-145.88 1358.9,-105.46 43.2,3.81 91.3,-11.28 132.6,-28.55 254.1,-106.35 524,-157.1 792.2,-197.8 448.3,-68.02 879.1,-212.22 1339.3,-242.99 298.2,-19.94 607.8,-30.26 900.5,-95 257.7,-56.98 511.2,-58.36 768.4,-67.16 484.3,-16.56 968.9,27.71 1452.9,-75.58 247.9,-52.91 516.3,-27.62 773.9,-12.06 263.7,15.92 503.7,-113.99 766,-94.19 397.1,29.96 788,-62.93 1172.6,-123.43 419.9,-66.02 843.2,-72.3 1262.8,-131.57 521.5,-73.67 1056.9,-19.04 1587.2,-96.21 387.7,-56.46 789.8,-13.62 1185.4,-16.3 108.5,-0.74 209.1,22.25 308.1,68.86 398.4,187.52 800,368.16 1198.1,556.39 384.9,181.96 760.8,384.2 1152.8,548.7 157.9,66.27 252.1,156.63 308.6,304.83 237.9,623.6 485.4,1243.76 709.7,1872.23 185.9,521.32 446.6,994.73 803.7,1416.18"
         style="fill:#95481e;fill-opacity:1;fill-rule:nonzero;stroke:none"
         id="path20" /><path
         d="m 11447.4,5615.72 c -151.3,-0.97 -302.6,-1.94 -453.9,-2.86 -178.8,11.19 -374.6,69.58 -529.3,-37.2 -295.1,-203.72 -615.88,-378.49 -848.25,-663.61 -55.76,-23.08 -118.9,-36.14 -166.09,-70.87 -342.03,-251.6 -680.83,-507.56 -1020.65,-762.16 -191.56,-20.55 -380.29,-25.71 -575.7,-13.04 -446.11,28.92 -886.39,145.3 -1337.59,96.51 -200.53,61.85 -405.36,91.18 -615.57,91.82 -371.9,1.13 -743.8,7.08 -1115.69,11.03 -212.55,86.15 -394.37,218.86 -565.62,355.86 17.63,99.19 84.28,86.03 140.62,87.33 468.92,10.83 936.84,17.53 1406.05,54.91 340.91,27.17 691.15,-55.36 1036.58,-94.65 375.7,-42.72 750.49,-93.25 1125.98,-137.96 219.18,-26.09 413.02,31.74 601.36,152.66 433.2,278.1 879.12,536.36 1313.92,812.05 359.35,227.84 760.55,293.81 1170.45,314.21 741.1,36.88 1483.1,57.33 2224.7,85.83 166.4,6.39 332.7,17.65 498.9,26.55 43.3,-13.6 109.1,-19.35 108.5,25.67 -0.5,40.63 -68.6,34.87 -111.9,20.23 -127.1,17.71 -254.1,35.43 -380.9,53 -40.4,59.39 -97.5,67.52 -162.2,51.59 -61.4,8.87 -122.9,17.73 -184.4,26.66 100.8,95.11 231.2,84.81 342.9,60.49 521.2,-113.55 1049.3,-58.44 1574,-80.98 151.2,-6.5 302,-1.29 434.8,-90.77 -36.5,-112.98 -112.4,-174.82 -233,-176.44 -135.7,-1.81 -271.6,1.52 -407,-4.97 -104.4,-5.01 -224.8,8.14 -309.1,-38.84 -252.2,-140.56 -520.9,-132.51 -791.9,-134.61 -723.3,-5.59 -1446.7,-11.6 -2170,-17.44"
         style="fill:#dcbf61;fill-opacity:1;fill-rule:nonzero;stroke:none"
         id="path22" /><path
         d="m 6430.5,10036.5 c 333.18,-8.3 666.33,-18.9 999.55,-24.1 232.57,-3.6 386.38,-113.37 512.71,-360.33 -551.65,121 -1065.78,69.35 -1576.84,93.42 -428.8,20.2 -841.87,-91.06 -1264.39,-119.3 -100.98,-6.74 -202.13,-61.95 -296.5,-108.47 -557.17,-274.71 -1130.24,-521.04 -1634.78,-891.82 -183.03,-134.5 -418.15,-181 -580.78,-348.66 -319.26,-162.9 -648.32,-309.64 -953.82,-495.18 -163.67,-99.39 -324.85,-142.79 -506.43,-149.26 -209.083,5.41 -418.177,10.82 -627.259,16.24 66.125,233.57 236.273,385.2 425.891,511.69 704.578,470.05 1438.128,892.45 2177.508,1304.78 52.55,29.32 106.98,72.48 162.74,76.18 563.78,37.38 1073.53,295.78 1626.23,387.39 511.49,84.82 1023.41,84.12 1536.17,107.42"
         style="fill:#dcc263;fill-opacity:1;fill-rule:nonzero;stroke:none"
         id="path24" /><path
         d="m 1129.22,7632.8 c 181.58,6.47 342.76,49.87 506.43,149.26 305.5,185.54 634.56,332.28 953.82,495.18 128.62,-58.74 211.4,-171.39 309.4,-265.64 87.9,-84.54 173.25,-170.71 289.63,-216.94 160.8,-63.87 282.23,-166.55 363.59,-325.32 48.22,-94.09 147.36,-147.27 237.15,-207.09 504.29,-336.02 985.23,-703.51 1429.7,-1115.8 120.64,-111.9 248.43,-159.61 409.96,-156.5 319.11,6.18 638.42,1.95 957.65,1.42 105.79,-0.17 215.26,10.61 293.9,-84.55 -942.69,2.22 -1885.35,4.39 -2827.97,6.46 -306.24,248.52 -647.62,444.54 -985.64,643.64 -495.09,291.59 -962.88,630.89 -1494.8,859.11 -150.84,64.72 -295.39,144.11 -442.82,216.77"
         style="fill:#ba6f1e;fill-opacity:1;fill-rule:nonzero;stroke:none"
         id="path26" /><path
         d="m 1129.22,7632.8 c 147.43,-72.66 291.98,-152.05 442.82,-216.77 531.92,-228.22 999.71,-567.52 1494.8,-859.11 338.02,-199.1 679.4,-395.12 985.64,-643.64 -45.47,-2.4 -93.9,-16.47 -135.88,-5.62 -416.84,107.83 -842.13,86.86 -1265.17,79.33 -197.39,-3.49 -348.11,55.24 -484,198.7 -271.43,286.54 -600.71,505.71 -905.02,754.19 -267.93,218.77 -508.148,471.48 -760.527,709.18 209.16,-5.44 418.254,-10.85 627.337,-16.26"
         style="fill:#95481e;fill-opacity:1;fill-rule:nonzero;stroke:none"
         id="path28" /><path
         d="m 13734.2,5968.03 c 43.3,14.64 111.4,20.4 111.9,-20.23 0.6,-45.02 -65.2,-39.27 -108.5,-25.67 -7.3,14.89 -8.5,30.15 -3.4,45.9"
         style="fill:#c9861a;fill-opacity:1;fill-rule:nonzero;stroke:none"
         id="path30" /><path
         d="m 13191.1,6072.62 c 64.7,15.93 121.8,7.8 162.2,-51.59 -67.5,-24.54 -122,-9.03 -162.2,51.59"
         style="fill:#c9861a;fill-opacity:1;fill-rule:nonzero;stroke:none"
         id="path32" /><path
         d="m 11447.4,5615.72 c 723.3,5.84 1446.7,11.85 2170,17.44 271,2.1 539.7,-5.95 791.9,134.61 84.3,46.98 204.7,33.83 309.1,38.84 135.4,6.49 271.3,3.16 407,4.97 120.6,1.62 196.5,63.46 233,176.44 392.7,-6.49 790.1,54.31 1174,-80.96 427.5,42.93 837.6,-131.69 1265.3,-101.14 103,7.36 213.3,-12.34 312.3,-44.2 134.4,-43.23 269.3,-40.4 405.6,-43.2 272,-5.6 541.6,5.93 812.4,-70.69 169.8,-48.01 362,-18.6 544.3,-20.04 273.5,-2.17 547.2,-0.52 820.8,-1.39 91.1,-0.28 189.4,18.32 272.2,-8.89 356.3,-117.04 721.9,-72.79 1084.4,-81.56 166.7,-4.04 335.1,11.2 493.5,-61.29 27,-12.34 59.4,-22.37 88.1,-19.78 397.5,35.94 778.6,-99.41 1173.6,-108.13 330.7,-7.29 661.3,-59.66 990.1,-105.42 626.9,-87.23 1250.7,-192.87 1878.9,-274.19 577.9,-74.8 1149.8,-42.31 1723.6,-72.21 237.5,-12.37 441.3,50.22 639,187.96 434.9,303.19 882.3,588.63 1324.5,881.51 12.6,8.36 22.4,22.28 35.9,27.84 545.9,224.95 743.2,723.71 952.4,1212.66 137,320.27 256.1,649.36 412.2,959.99 144.7,288.22 194.4,568.77 82.3,875.63 -25.4,69.32 -22.3,148.99 -32.4,223.79 843.5,50.84 843.6,50.94 1418.1,-535.54 20.9,-21.29 36.4,-47.8 54.4,-71.8 -357,-421.37 -617.7,-894.78 -803.6,-1416.1 -224.3,-628.47 -471.8,-1248.63 -709.7,-1872.23 -56.5,-148.2 -150.7,-238.56 -308.6,-304.83 -392,-164.5 -767.9,-366.74 -1152.8,-548.7 -398.1,-188.23 -799.7,-368.87 -1198.1,-556.39 -99,-46.61 -199.6,-69.6 -308.1,-68.86 -395.6,2.68 -797.7,-40.16 -1185.4,16.3 -530.3,77.17 -1065.7,22.54 -1587.2,96.21 -419.6,59.27 -842.9,65.55 -1262.8,131.57 -384.6,60.5 -775.5,153.39 -1172.6,123.43 -262.3,-19.8 -502.3,110.11 -766,94.19 -257.6,-15.56 -526,-40.85 -773.9,12.06 -484,103.29 -968.6,59.02 -1452.9,75.58 -257.2,8.8 -510.7,10.18 -768.4,67.16 -292.7,64.74 -602.3,75.06 -900.5,95 -460.2,30.77 -891,174.97 -1339.3,242.99 -268.2,40.7 -538.1,91.45 -792.2,197.8 -41.3,17.27 -89.4,32.36 -132.6,28.55 -458.7,-40.42 -904.1,87.16 -1358.9,105.46 -361.6,14.57 -721.9,71.61 -1081.7,118.79 -374.4,49.12 -749,102.45 -1121.1,161.09 -484.4,76.36 -967.6,71.32 -1452.5,82.86 -78.4,1.86 -149.8,20.37 -207.6,76.82"
         style="fill:#ba6f1e;fill-opacity:1;fill-rule:nonzero;stroke:none"
         id="path34" /><path
         d="m 9615.95,4912.06 c 232.37,285.11 553.15,459.88 848.25,663.6 154.7,106.78 350.5,48.39 529.3,37.19 -242.1,-123.33 -337,-348.55 -355.4,-592.84 -30.8,-409.72 -156.3,-800.19 -215.4,-1204.01 -26.2,-178.5 -63.7,-355 -75.4,-536.9 -5.7,-87.8 -40.6,-175.6 -72.3,-259.6 -53,-140.4 -151.7,-220.5 -310.23,-220.1 -501.2,1.3 -1002.42,0.2 -1503.62,-1.7 -127.53,-0.5 -241.76,45.2 -340.44,114.7 -519.45,365.6 -1043.72,725.2 -1526.98,1139.23 -33.21,28.46 -52.21,73.54 -77.8,110.88 451.19,48.77 891.47,-67.61 1337.58,-96.53 195.41,-12.67 384.14,-7.51 575.74,13 100.1,-65.46 198.46,-133.71 300.71,-195.53 105.1,-63.55 220.64,-85.75 344.54,-83.35 192.83,3.8 230.23,17 288.64,208.01 91.47,299.12 169.24,602.42 252.81,903.95"
         style="fill:#ba6f1e;fill-opacity:1;fill-rule:nonzero;stroke:none"
         id="path36" /><path
         d="m 9615.95,4912.05 c -83.57,-301.52 -161.34,-604.82 -252.81,-903.94 -58.41,-191.01 -95.81,-204.21 -288.64,-208.01 -123.9,-2.4 -239.44,19.8 -344.54,83.35 -102.25,61.82 -200.61,130.07 -300.71,195.53 339.78,254.64 678.58,510.6 1020.61,762.2 47.19,34.73 110.33,47.79 166.09,70.87"
         style="fill:#c9861a;fill-opacity:1;fill-rule:nonzero;stroke:none"
         id="path38" /></g></g></svg>
